<?xml version="1.0" encoding="UTF-8"?>
<svg id="Layer_1" data-name="Layer 1" xmlns="http://www.w3.org/2000/svg" xmlns:xlink="http://www.w3.org/1999/xlink" viewBox="0 0 424.22 393.91">
  <defs>
    <style>
      .cls-1 {
        fill: url(#linear-gradient);
      }

      .cls-1, .cls-2 {
        stroke-width: 0px;
      }

      .cls-2 {
        fill: url(#linear-gradient-2);
      }
    </style>
    <linearGradient id="linear-gradient" x1="186.49" y1="-10.91" x2="186.49" y2="164.57" gradientUnits="userSpaceOnUse">
      <stop offset="0" stop-color="#ea5624"/>
      <stop offset=".98" stop-color="#204f83"/>
    </linearGradient>
    <linearGradient id="linear-gradient-2" x1="32.76" y1="447.34" x2="378.61" y2="256.93" xlink:href="#linear-gradient"/>
  </defs>
  <path class="cls-1" d="M118.17,149.04v22.93h-22.93v-22.93h22.93ZM255.51,51.48c-4.45-10.53-10.06-18.95-19.65-24.8-6.55-3.98-15.68-6.79-24.57-6.79-8.66-.23-17.31,1.64-23.63,5.15-7.72,4.45-12.64,12.4-12.64,20.36,0,5.15,1.87,10.29,5.62,13.8,4.68,4.91,13.34,8.42,22.46,11.23l29.95,8.66c12.87,3.74,22.7,8.42,30.65,16.14,8.66,8.42,14.04,20.12,14.04,32.29,0,14.04-7.72,28.55-19.89,36.97-11.93,8.42-27.61,11-43.75,11-21.99,0-39.07-6.32-52.88-21.99-7.72-8.66-12.4-20.12-14.74-29.95l21.06-5.85c1.87,7.96,4.45,15.21,10.53,22.46,8.19,10.06,22.46,15.44,36.73,15.44,10.76,0,23.4-2.81,30.89-8.19,7.02-5.15,9.83-13.1,9.83-20.59,0-6.32-2.34-12.17-7.02-16.61-5.15-4.91-11.93-8.19-20.36-10.53l-30.89-9.13c-11.46-3.51-22.7-7.72-31.35-15.68-8.89-7.72-12.87-19.65-12.87-30.18,0-16.14,10.76-30.89,24.8-37.9,11-5.62,22.7-6.79,33.69-6.79,11.7,0,24.57,2.57,34.86,8.66,13.8,7.96,24.1,21.06,29.95,37.2l-20.82,5.62Z"/>
  <rect class="cls-2" y="303.28" width="424.22" height="90.62"/>
</svg>