<?xml version="1.0" encoding="UTF-8"?>
<svg id="Layer_1" data-name="Layer 1" xmlns="http://www.w3.org/2000/svg" version="1.1" viewBox="0 0 479.8 186">
  <defs>
    <style>
      .cls-1 {
        fill: #000;
        stroke-width: 0px;
      }
    </style>
  </defs>
  <g>
    <path class="cls-1" d="M297.5,90.6c-3.4-1.7-7.8-2.5-13.1-2.5h-14.9c-4,0-7.1-1.1-9.4-3.2h-.1c-2.2-2.4-3.3-5.1-3.3-8.1s1.1-5.9,3.3-8.2c2.2-2.3,5.2-3.5,8.9-3.5h36.5v-7.9h-37.9c-4.1,0-7.7,1-10.8,2.9-3.2,1.8-5.6,4.2-7.3,7.3-1.7,3-2.6,6.3-2.6,9.9s.9,7.8,2.7,10.7c1.9,2.9,4.5,5.1,7.8,6.7,3.5,1.5,7.6,2.2,12.2,2.2h15.6c2.6,0,5,.6,7,1.8,2,1.1,3.5,2.6,4.5,4.6,1,1.8,1.4,3.7,1.4,5.9s-.5,4.4-1.6,6.4c-1.1,2-2.7,3.7-4.8,5-2,1.2-4.5,1.8-7.2,1.8h-35.2v7.9h36.8c4.4,0,8.1-1,11.4-3,3.4-2.1,5.9-4.6,7.8-7.9,1.9-3.4,2.8-6.8,2.8-10.7s-.9-8.2-2.8-11.2c-1.7-3-4.3-5.2-7.8-6.8h0s0,0,0,0Z"/>
    <path class="cls-1" d="M469.3,90.6c-3.4-1.7-7.8-2.5-13.1-2.5h-14.9c-4,0-7.1-1.1-9.4-3.2h-.1c-2.2-2.4-3.3-5.1-3.3-8.1s1.1-5.9,3.3-8.2c2.2-2.3,5.2-3.5,8.9-3.5h36.5v-7.9h-37.9c-4.1,0-7.7,1-10.8,2.9-3.2,1.8-5.6,4.2-7.3,7.3-1.7,3-2.6,6.3-2.6,9.9s.9,7.8,2.7,10.7c1.9,2.9,4.5,5.1,7.8,6.7,3.5,1.5,7.6,2.2,12.2,2.2h15.6c2.6,0,5,.6,7,1.8,2,1.1,3.5,2.6,4.5,4.6,1,1.8,1.4,3.7,1.4,5.9s-.5,4.4-1.6,6.4c-1.1,2-2.7,3.7-4.8,5-2,1.2-4.5,1.8-7.2,1.8h-35.2v7.9h36.8c4.4,0,8.1-1,11.4-3,3.4-2.1,5.9-4.6,7.8-7.9,1.9-3.4,2.8-6.8,2.8-10.7s-.9-8.2-2.8-11.2c-1.7-3-4.3-5.2-7.8-6.8h0s0,0,0,0Z"/>
  </g>
  <path class="cls-1" d="M381.1,59.7c-5-2.7-11-4.1-17.7-4.1s-12.6,1.4-17.7,4.2c-5.2,2.7-9.1,6.3-12.1,11.2-2.8,4.8-4.3,10.5-4.3,17v42.6h9.9v-42.4c0-5,1.1-9.4,3.3-13,2.3-3.7,5.3-6.6,9-8.6,3.7-2,7.7-3,11.8-3s8.1,1,11.7,3c3.7,2,6.8,4.9,9,8.6,2.3,3.6,3.5,8,3.5,13v42.4h10v-42.6c0-6.4-1.5-12.2-4.4-17-2.9-4.9-6.8-8.5-12-11.2h0s0,0,0,0Z"/>
  <path class="cls-1" d="M186,93c0,51.4-41.6,93-93,93S0,144.4,0,93,41.6,0,93,0s93,41.6,93,93ZM136.6,98.8c-2.7-4.6-6.7-8.1-12.2-10.6h0s0,0,0,0h0,0c-5.4-2.6-12.3-3.9-20.4-3.9h-23.2c-6.2,0-11.1-1.7-14.7-5l-.2-.2c-3.5-3.6-5.1-7.7-5.1-12.5s1.7-9.2,5.1-12.8c3.4-3.6,8.1-5.5,13.9-5.5h32.6v-12.4h-34.7c-6.4,0-12,1.5-16.9,4.5-4.9,2.9-8.7,6.6-11.4,11.4-2.7,4.8-4.1,9.8-4.1,15.5s1.4,12.2,4.2,16.7c3,4.6,7,8,12.2,10.5,5.4,2.3,11.8,3.5,19.1,3.5h24.5c4.1,0,7.8.9,10.9,2.8,3.2,1.7,5.5,4.1,7.1,7.2,1.5,2.9,2.2,5.8,2.2,9.2s-.8,6.9-2.5,10c-1.7,3.2-4.2,5.8-7.6,7.9-3.1,1.9-7,2.8-11.3,2.8h-30.2v12.4h32.9c6.9,0,12.7-1.5,17.8-4.7,5.3-3.2,9.3-7.2,12.2-12.3,2.9-5.2,4.4-10.7,4.4-16.7s-1.5-12.9-4.3-17.6ZM48.9,137.7v12.4h12.4v-12.4h-12.4ZM124.3,88.2h0,0s0,0,0,0ZM124.7,35.8v12.4h12.2v-12.4h-12.2Z"/>
</svg>